<?xml version="1.0" encoding="UTF-8" standalone="no"?>
<svg
   xmlns:dc="http://purl.org/dc/elements/1.1/"
   xmlns:cc="http://creativecommons.org/ns#"
   xmlns:rdf="http://www.w3.org/1999/02/22-rdf-syntax-ns#"
   xmlns:svg="http://www.w3.org/2000/svg"
   xmlns="http://www.w3.org/2000/svg"
   xmlns:sodipodi="http://sodipodi.sourceforge.net/DTD/sodipodi-0.dtd"
   xmlns:inkscape="http://www.inkscape.org/namespaces/inkscape"
   width="190mm"
   height="53.528mm"
   viewBox="0 0 190 53.528">
  <g id="layer1">
    <path
       style="fill:#000000;stroke-width:0.999999"
       d="m 104.05362,53.470171 c -0.0261,-0.0261 -0.30211,-0.0882 -0.61346,-0.13819 -0.31135,-0.0499 -0.604,-0.1284 -0.65034,-0.17435 -0.0463,-0.0459 -0.14387,-0.0835 -0.21671,-0.0835 -0.25323,0 -1.43663,-0.63678 -1.94926,-1.04885 -0.42477,-0.34147 -0.983705,-0.9291 -1.322345,-1.39023 -0.0599,-0.0816 -0.29907,-0.56215 -0.33105,-0.6652 -0.008,-0.0243 -0.0603,-0.1567 -0.1172,-0.29402 -0.0569,-0.13732 -0.10343,-0.31893 -0.10343,-0.40356 0,-0.0846 -0.0422,-0.19614 -0.0939,-0.24782 -0.20394,-0.20394 0.0224,-3.04227 0.26763,-3.35624 0.0381,-0.0488 0.12057,-0.24835 0.18325,-0.44347 0.27075,-0.84276 1.140935,-2.21006 2.088505,-3.28166 0.7632,-0.86309 1.00497,-1.10527 2.21355,-2.21735 0.58316,-0.536599 1.3001,-1.197382 1.59319,-1.468411 0.74276,-0.686854 1.37264,-1.267417 1.6859,-1.553925 0.14635,-0.133835 0.67562,-0.623214 1.17616,-1.087494 l 0.91008,-0.844143 -0.0525,-0.405555 c -0.0288,-0.223062 -0.0791,-0.761643 -0.11184,-1.196854 l -0.0594,-0.791298 -0.31958,0.48087 c -0.47817,0.719518 -0.85047,1.111881 -1.59693,1.68296 -1.40169,1.072355 -2.76858,1.613653 -4.11466,1.629425 -2.19598,0.0257 -4.317975,-1.341086 -5.401401,-3.479126 -0.1285,-0.253583 -0.248374,-0.461069 -0.266375,-0.461069 -0.01801,0 -0.246836,0.36786 -0.508499,0.817449 -0.653695,1.123184 -1.654835,2.126699 -2.578721,2.584855 -0.561295,0.27835 -0.809026,0.347706 -1.382218,0.386989 -1.566279,0.107364 -2.848999,-0.375189 -3.920734,-1.474969 -0.365861,-0.375424 -0.751128,-0.860148 -0.85615,-1.077165 -0.105022,-0.217006 -0.257238,-0.534259 -0.338269,-0.704992 -0.08102,-0.170732 -0.170247,-0.499707 -0.198274,-0.731045 -0.02803,-0.231346 -0.106264,-0.466529 -0.173866,-0.522635 -0.06759,-0.05608 -0.131923,-0.08635 -0.142939,-0.06718 -0.01101,0.01918 -0.09985,0.193261 -0.197414,0.386921 -0.449038,0.891341 -1.519384,2.144924 -2.389921,2.799048 -0.52888,0.397407 -1.787078,1.061791 -2.01079,1.061791 -0.08609,0 -0.178638,0.03573 -0.205654,0.07944 -0.05034,0.08149 -1.198827,0.265148 -1.91258,0.305901 -0.676068,0.03865 -1.915978,-0.190194 -2.523528,-0.465681 -1.590509,-0.721163 -2.527408,-1.795728 -3.502288,-4.016901 -0.100525,-0.22904 -0.182773,-0.462479 -0.182773,-0.518761 0,-0.05627 -0.05392,-0.228095 -0.119842,-0.38181 -0.06591,-0.153715 -0.155717,-0.396491 -0.199561,-0.539497 -0.09261,-0.302037 -0.240145,-0.350676 -0.287502,-0.09473 -0.03229,0.17449 -0.203313,0.58725 -0.569618,1.374751 -0.17638,0.379191 -0.926037,1.639667 -1.119308,1.882005 -0.793147,0.994499 -1.963502,2.109214 -2.214504,2.109214 -0.05595,0 -0.101733,0.03242 -0.101733,0.07204 0,0.09327 -0.789606,0.437858 -1.219171,0.53203 -0.393631,0.08626 -1.236422,0.07808 -1.796411,-0.01752 -1.393953,-0.237996 -2.954299,-1.656577 -3.669453,-3.336062 -0.135017,-0.317078 -0.279789,-0.656335 -0.321713,-0.753895 -0.111873,-0.260349 -0.42341,-1.370273 -0.485447,-1.729526 -0.02948,-0.170742 -0.09277,-0.470082 -0.14065,-0.665203 -0.04788,-0.19513 -0.116181,-0.753904 -0.151792,-1.241715 -0.0366,-0.501275 -0.103314,-0.882589 -0.15344,-0.876932 -0.09171,0.01032 -0.200128,0.20505 -0.661151,1.187361 -0.148814,0.317078 -0.410061,0.815978 -0.58055,1.108669 -0.170489,0.29269 -0.336833,0.59203 -0.369653,0.665203 -0.03282,0.07321 -0.122725,0.218222 -0.19979,0.322335 -0.07707,0.104112 -0.199985,0.278253 -0.273156,0.38698 -0.65279,0.969955 -1.67116,2.096839 -2.530435,2.80006 -0.439608,0.359769 -1.254906,0.925308 -1.333947,0.925308 -0.02292,0 -0.190539,0.09395 -0.372501,0.208849 -0.181961,0.11487 -0.350794,0.20837 -0.375186,0.207776 -0.02439,-6.23e-4 -0.241684,0.08626 -0.482873,0.192911 -0.24119,0.106682 -0.54053,0.218252 -0.665201,0.247916 -0.124673,0.02969 -0.266589,0.08343 -0.315371,0.119495 -0.04879,0.03602 -0.368077,0.112426 -0.709548,0.16971 -0.34147,0.05724 -0.740592,0.132044 -0.886936,0.166128 -0.30845,0.07185 -3.241917,0.07545 -3.636438,0.0049 -0.146345,-0.02629 -0.465642,-0.07701 -0.709549,-0.112728 -1.118575,-0.163587 -2.510957,-0.721329 -3.243764,-1.29934 -0.174282,-0.137467 -0.389529,-0.411066 -0.47833,-0.607987 -0.155892,-0.34571 -0.155931,-0.375589 -0.0012,-0.867733 0.448602,-1.426223 1.644507,-2.642918 2.411449,-2.453366 0.252243,0.06231 1.186939,0.537443 1.267433,0.644233 0.07931,0.105212 0.946541,0.699257 1.253301,0.858493 0.491388,0.255082 1.275406,0.460629 1.634183,0.428434 0.4304,-0.03865 1.175193,-0.402323 1.474987,-0.720268 0.128047,-0.135802 0.366304,-0.48638 0.529458,-0.77907 0.29421,-0.527796 0.296647,-0.541708 0.296647,-1.693729 0,-0.718671 -0.03761,-1.209022 -0.09864,-1.286051 -0.05425,-0.06844 -0.125127,-0.235338 -0.157503,-0.370799 -0.145235,-0.607665 -1.148581,-1.976965 -2.262005,-3.087036 -0.839984,-0.837455 -2.577416,-2.387408 -2.676182,-2.387408 -0.03437,0 -0.669671,1.027737 -1.411789,2.283861 -0.742118,1.256124 -1.425227,2.392003 -1.518021,2.524173 -0.09279,0.13218 -0.168716,0.281845 -0.168716,0.332606 0,0.05072 -0.03116,0.09229 -0.06925,0.09229 -0.03809,0 -0.11719,0.109759 -0.175785,0.243905 -0.0586,0.134147 -0.177104,0.351824 -0.263353,0.483723 -0.08625,0.131897 -0.353509,0.570933 -0.593911,0.975631 -0.419928,0.70692 -1.262773,2.059173 -1.398419,2.243614 -0.03588,0.04877 -0.177649,0.228377 -0.31505,0.399119 -0.137403,0.170733 -0.366812,0.470074 -0.5098,0.665204 -0.142988,0.19512 -0.416031,0.522713 -0.606763,0.727968 -0.190732,0.205256 -0.451635,0.48751 -0.579782,0.627235 -0.728152,0.793926 -2.17648,1.784064 -2.903153,1.984704 -0.177757,0.04907 -0.408021,0.113624 -0.511698,0.143425 -0.355707,0.102254 -1.164471,0.05423 -1.66245,-0.09875 -0.586594,-0.180186 -1.218747,-0.748987 -1.535233,-1.381382 -0.259353,-0.518244 -0.582911,-1.461281 -0.582911,-1.698965 0,-0.100569 -0.0366,-0.251237 -0.08131,-0.334797 -0.207162,-0.387088 -0.380965,-3.336336 -0.335331,-5.690185 0.06027,-3.108795 0.209984,-6.639424 0.332845,-7.849391 0.05449,-0.536596 0.08565,-1.374752 0.06926,-1.862562 -0.02941,-0.875171 -0.0327,-0.886941 -0.24813,-0.886941 -0.167459,0 -0.370358,0.185969 -0.87089,0.79824 -1.315874,1.609632 -2.520457,3.632083 -3.460131,5.809435 -0.09474,0.219519 -0.232349,0.538816 -0.305806,0.709549 -0.07345,0.170743 -0.203346,0.509989 -0.288641,0.753905 -0.08529,0.243905 -0.205882,0.563203 -0.267967,0.709548 -0.06208,0.146345 -0.140119,0.395332 -0.173407,0.553311 -0.03329,0.157981 -0.09737,0.310011 -0.142397,0.337836 -0.04503,0.02784 -0.08187,0.132014 -0.08187,0.231521 0,0.09951 -0.05718,0.30669 -0.127071,0.460405 -0.153695,0.33805 -0.729463,2.316728 -1.062054,3.649851 -0.06085,0.243905 -0.135146,0.503339 -0.165099,0.576511 -0.05679,0.138714 -0.24652,0.991881 -0.473385,2.128646 -0.07302,0.365863 -0.184325,1.084282 -0.247355,1.59649 -0.06303,0.512199 -0.146247,1.004186 -0.18493,1.093286 -0.207416,0.477774 -1.944026,0.624236 -3.283457,0.276919 -0.625725,-0.162244 -1.102374,-0.767261 -1.289124,-1.636288 -0.20238,-0.941772 -0.231735,-2.601708 -0.198414,-11.219751 0.03361,-8.693272 0.08247,-10.340512 0.31359,-10.571625 0.06701,-0.06698 0.281957,-0.133768 0.47766,-0.148352 0.441054,-0.03291 1.729063,0.111532 1.849305,0.20733 0.04879,0.03884 0.222788,0.09935 0.38668,0.134429 0.523019,0.11193 1.225324,0.46868 1.430595,0.726702 l 0.198884,0.24998 -0.06366,3.459063 c -0.05469,2.971844 -0.08105,6.613594 -0.05376,7.428093 0.01547,0.461846 0.1421,0.240537 0.482252,-0.842858 0.187572,-0.597434 0.397111,-1.212002 0.465642,-1.365717 0.06853,-0.153715 0.124601,-0.335313 0.124601,-0.40356 0,-0.06825 0.03402,-0.16198 0.07562,-0.208331 0.04159,-0.04634 0.126889,-0.274866 0.189553,-0.507838 0.06267,-0.232962 0.148373,-0.444857 0.190463,-0.470871 0.04209,-0.02599 0.07653,-0.107003 0.07653,-0.179971 0,-0.07302 0.082,-0.320068 0.18223,-0.549098 0.100226,-0.229039 0.216743,-0.496251 0.258925,-0.593821 1.954177,-4.519764 3.842049,-6.717162 6.067664,-7.062474 1.233963,-0.19146 2.116777,0.08548 3.735293,1.171892 1.180409,0.792321 1.517872,1.44219 1.423821,2.741958 -0.26981,3.728699 -0.401944,11.291533 -0.230943,13.218204 0.126131,1.421094 0.498331,2.120166 1.068145,2.006202 0.315388,-0.06309 0.388594,-0.117859 1.025516,-0.76734 0.492588,-0.502297 1.280844,-1.598426 1.941069,-2.69919 0.733494,-1.222925 1.632653,-2.76692 2.095368,-3.598056 0.257999,-0.463424 0.559939,-1.002239 0.670976,-1.197369 0.111038,-0.195121 0.297586,-0.534377 0.414553,-0.753895 0.116965,-0.219518 0.398223,-0.733254 0.625015,-1.141633 0.226792,-0.408388 0.41235,-0.781212 0.41235,-0.828498 0,-0.04731 -0.140099,-0.24965 -0.311332,-0.449697 -0.780745,-0.912116 -1.122126,-2.179903 -0.939166,-3.487761 0.18352,-1.31186 0.75543,-2.397164 1.735283,-3.293022 0.568009,-0.519315 1.591669,-1.130574 1.73991,-1.038962 0.04474,0.02765 0.08134,0.01246 0.08134,-0.03378 0,-0.04624 0.129714,-0.10861 0.288254,-0.138615 0.15854,-0.02999 0.388034,-0.08207 0.509988,-0.115727 0.302277,-0.08334 1.393348,-0.08246 1.773872,0.0019 0.576248,0.127166 1.068951,0.425854 1.314084,0.796644 0.211743,0.320281 0.238055,0.444088 0.238055,1.120098 0,0.501957 -0.05736,0.94072 -0.168936,1.292184 -0.300408,0.946308 -1.072211,2.270493 -2.037049,3.494967 l -0.447625,0.568081 0.213663,0.141468 c 0.117515,0.07779 0.360153,0.261205 0.539194,0.40755 0.179042,0.146345 0.41544,0.325957 0.525328,0.39912 0.109888,0.07321 0.244986,0.172953 0.300217,0.221738 0.05523,0.04878 0.898264,0.687381 1.873404,1.419098 2.584299,1.9392 3.277145,2.641672 4.007267,4.06295 0.521753,1.015655 0.830792,2.451789 0.665644,3.093305 -0.05419,0.210493 -0.124846,0.560439 -0.157019,0.777669 l -0.0585,0.394963 0.210401,-0.137428 c 0.32523,-0.212449 1.534271,-1.634935 2.07895,-2.445987 0.674119,-1.003787 1.224319,-2.091154 1.501613,-2.967658 0.128388,-0.405819 0.279003,-0.857598 0.334701,-1.003943 0.158099,-0.415398 0.203939,-12.459081 0.04746,-12.468242 -0.06374,-0.0039 -0.188574,-0.02054 -0.277421,-0.03739 -0.08885,-0.01684 -1.261811,-0.05676 -2.606587,-0.08879 -1.344778,-0.03193 -2.53818,-0.09356 -2.652007,-0.136824 -0.114406,-0.04352 -0.233231,-0.18337 -0.265709,-0.312775 -0.07875,-0.313768 0.01214,-1.6979629 0.120531,-1.8356729 0.0474,-0.06026 0.113247,-0.222584 0.14631,-0.360791 0.03306,-0.138197 0.162679,-0.413743 0.288032,-0.612319 l 0.227916,-0.361034 1.919366,0.06464 c 1.055649,0.03553 2.258617,0.07058 2.67326,0.07798 l 0.753895,0.01334 0.102584,-1.416907 c 0.05642,-0.779295 0.108822,-2.015577 0.116447,-2.747303 0.02535,-2.432484 0.163196,-3.122504 0.657058,-3.289002 0.47349,-0.159643 2.658975,0.13552 3.02643,0.408729 0.04878,0.03631 0.227076,0.0956 0.396211,0.131811 0.169133,0.03622 0.368694,0.09877 0.443468,0.138985 0.07477,0.04021 0.282842,0.138148 0.462377,0.217629 0.405482,0.179514 0.497063,0.425084 0.461997,1.238833 -0.135985,3.155692 -0.206306,5.391984 -0.171332,5.448567 0.02326,0.03758 0.512561,0.09229 1.087346,0.121578 0.574786,0.02921 1.142046,0.07418 1.260579,0.09986 0.118532,0.0257 0.9966,0.07185 1.951259,0.102662 0.95466,0.03076 1.774364,0.07935 1.821563,0.107879 0.0472,0.02853 0.206848,0.05871 0.354774,0.06698 0.523539,0.0294 0.568123,0.04069 0.70609,0.178648 0.18838,0.188375 0.183624,1.064839 -0.0091,1.6621759 -0.08161,0.253076 -0.176019,0.48009 -0.20978,0.504478 -0.03376,0.02434 -0.08738,0.12776 -0.119156,0.229711 -0.03178,0.101941 -0.14691,0.228864 -0.255861,0.28204 -0.126394,0.06172 -1.364742,0.112612 -3.421444,0.14067 -1.772843,0.02414 -3.249592,0.07019 -3.281664,0.102194 -0.03207,0.03203 -0.108582,1.541659 -0.170027,3.354764 -0.06144,1.813097 -0.127765,3.476148 -0.147381,3.695666 -0.09485,1.061588 -0.14647,9.072199 -0.06343,9.845 0.113335,1.054753 0.262184,1.941879 0.364603,2.172992 0.04324,0.09756 0.127428,0.337035 0.187097,0.532166 0.05967,0.195121 0.202143,0.503651 0.316607,0.685609 0.114465,0.181967 0.208119,0.371548 0.208119,0.421297 0,0.04975 0.02994,0.09064 0.06652,0.09083 0.03659,2.73e-4 0.186256,0.112564 0.332601,0.249641 0.314892,0.294949 0.786439,0.312229 1.342535,0.04916 0.486527,-0.230111 1.381474,-1.161153 1.933755,-2.011761 0.403628,-0.621645 1.114043,-1.996757 1.114043,-2.156393 0,-0.02814 0.05617,-0.176934 0.12482,-0.330649 0.44397,-0.99411 0.5926,-1.959178 0.76624,-4.975272 0.0532,-0.92411 0.128656,-1.742308 0.167678,-1.818217 0.03902,-0.07594 0.09922,-0.397055 0.133774,-0.713656 0.03455,-0.316592 0.09395,-0.615942 0.131989,-0.665204 0.03804,-0.04926 0.118548,-0.349001 0.178909,-0.666079 0.06036,-0.317078 0.141301,-0.616418 0.179864,-0.665203 0.03856,-0.04877 0.09976,-0.227073 0.135982,-0.396209 0.03623,-0.169136 0.0992,-0.368697 0.139951,-0.443466 0.103444,-0.189834 0.524215,-1.152839 0.524215,-1.199764 0,-0.0922 0.85371,-1.45287 1.12127,-1.787093 0.429946,-0.537063 1.264774,-1.347638 1.672578,-1.623992 0.495389,-0.335692 1.457095,-0.788388 1.822388,-0.857831 0.168447,-0.03203 0.3825,-0.09736 0.475682,-0.145158 0.09319,-0.0478 0.651959,-0.08596 1.24171,-0.0847 1.324701,0.0029 2.001637,0.183944 2.976957,0.796887 0.387068,0.243262 1.389119,1.226089 1.581744,1.551413 0.215934,0.364665 0.327413,0.247313 0.327413,-0.344649 0,-0.603616 0.180535,-0.962226 0.558974,-1.110353 0.365062,-0.142879 2.185401,-0.03037 2.722683,0.168328 1.350675,0.499435 1.560632,0.681617 1.574681,1.366408 0.02453,1.19516 -0.135597,8.69622 -0.196581,9.210075 -0.132686,1.117898 0.05286,6.058403 0.256532,6.829413 0.04508,0.170733 0.128938,0.545572 0.1863,0.832967 0.112154,0.561801 0.417764,1.207543 0.732982,1.548794 0.365055,0.395197 1.192082,0.635334 1.526217,0.443154 0.04868,-0.02804 0.19809,-0.07711 0.332061,-0.109107 0.372405,-0.08898 1.138965,-0.915787 1.467131,-1.582382 0.551317,-1.119894 0.676429,-1.616447 0.660648,-2.622084 -0.0078,-0.501674 -0.05549,-1.060449 -0.105855,-1.241705 -0.116632,-0.419954 -0.120838,-3.796245 -0.0049,-4.297335 0.0479,-0.20802 0.124255,-0.777347 0.169603,-1.265158 0.180917,-1.946718 0.762685,-4.086578 1.567905,-5.767087 1.079056,-2.252024 2.439846,-3.589625 4.301861,-4.228542 0.82871,-0.284357 2.63955,-0.290042 3.40803,-0.01071 0.63696,0.231521 1.11025,0.46318 1.27022,0.621705 0.0644,0.06386 0.14467,0.116145 0.17825,0.116145 0.11069,0 0.94364,0.83468 1.25829,1.260923 0.16985,0.230081 0.34718,0.406879 0.39405,0.392889 0.0469,-0.01402 0.0891,-0.26212 0.0937,-0.551384 0.0158,-0.971085 0.28307,-1.193923 1.43897,-1.199404 0.81865,-0.0039 1.34964,0.05413 1.66371,0.18187 0.0976,0.03962 0.42761,0.166128 0.73345,0.281018 0.30584,0.114899 0.66031,0.30556 0.78773,0.423711 l 0.23167,0.214806 -0.0572,5.994597 c -0.0475,4.973091 -0.11031,8.532527 -0.17606,9.977502 -0.007,0.141779 0.0314,0.272557 0.0841,0.290636 0.14714,0.05043 1.65271,-2.24227 2.63162,-4.007467 0.54492,-0.982632 1.66288,-3.352585 1.66288,-3.525138 0,-0.0661 0.0335,-0.158086 0.0744,-0.204427 0.0409,-0.04634 0.18401,-0.403559 0.31806,-0.793811 0.13403,-0.39025 0.27737,-0.78937 0.31852,-0.88693 0.0412,-0.09757 0.15925,-0.476733 0.26246,-0.842596 0.10321,-0.365863 0.24572,-0.85937 0.31669,-1.096684 0.18604,-0.622123 0.16319,-0.800546 -0.13413,-1.046848 -0.80067,-0.663323 -1.20077,-1.556622 -1.18509,-2.645926 0.0243,-1.691927 0.82922,-2.974172 2.20215,-3.508265 0.33373,-0.129834 0.66292,-0.172524 1.33039,-0.172524 1.12563,0 1.53175,0.191615 1.97746,0.93296 0.2877,0.478504 0.29174,0.500068 0.25737,1.373077 -0.0192,0.487821 -0.0554,0.9967 -0.0805,1.130846 -0.0537,0.287589 -0.008,0.304636 0.55085,0.204593 0.17074,-0.03057 0.64968,-0.115678 1.06432,-0.189113 0.41465,-0.07341 1.05325,-0.189795 1.41911,-0.258587 0.63187,-0.118793 1.04321,-0.192443 2.26168,-0.404912 0.79263,-0.138216 1.77567,0.106196 2.33882,0.581496 0.61311,0.517466 0.85011,1.424783 0.63712,2.439075 -0.20373,0.970219 -0.35164,1.652547 -0.49022,2.261693 -0.28486,1.251898 -0.4929,2.323095 -0.58567,3.015586 -0.0523,0.390251 -0.13008,0.789371 -0.1729,0.886931 -0.17757,0.404669 -0.28548,3.335089 -0.1779,4.831321 0.0576,0.801891 0.13649,1.519638 0.17522,1.595001 0.0387,0.07535 0.0989,0.296662 0.13381,0.491792 0.15717,0.879455 0.80723,2.254732 1.1643,2.4632 0.0646,0.03768 0.17331,0.124498 0.24178,0.192969 0.37424,0.374255 1.20524,0.458185 1.85372,0.187244 0.91283,-0.381411 2.16401,-2.601571 1.98724,-3.526296 -0.3187,-1.667335 -0.35799,-2.145108 -0.35958,-4.372658 -0.002,-3.098154 0.21784,-4.646725 0.98943,-6.96246 0.14663,-0.440096 0.16962,-0.498199 0.52622,-1.330396 1.06664,-2.489165 3.11111,-4.470366 4.98565,-4.831371 0.10489,-0.02015 0.23306,-0.06289 0.28481,-0.09492 0.17371,-0.107344 2.30029,-0.06202 2.43762,0.05189 0.0707,0.05861 0.12842,0.08353 0.12842,0.0553 0,-0.05734 0.63404,0.149032 0.97563,0.317594 0.70192,0.346383 1.47209,1.011576 2.06591,1.784358 0.13623,0.177284 0.2859,0.322335 0.33259,0.322335 0.0467,0 0.0849,-0.277162 0.0849,-0.615912 0,-0.523541 0.0321,-0.653228 0.21435,-0.864763 0.2143,-0.248783 0.21469,-0.248851 1.35258,-0.247381 0.95638,9.74e-4 1.22841,0.03368 1.7028,0.202977 0.81007,0.289137 1.20934,0.509687 1.43173,0.790879 0.19193,0.24266 0.19401,0.277173 0.13828,2.286334 -0.0312,1.121977 -0.0772,2.199609 -0.10243,2.394729 -0.0252,0.19513 -0.0525,2.689639 -0.0607,5.543352 -0.0143,5.030376 -0.009,5.221037 0.18377,6.252912 0.35393,1.896997 0.7481,2.62552 1.57425,2.909692 0.41953,0.144311 0.68678,0.132764 1.11187,-0.048 0.64887,-0.275994 1.4971,-1.396599 2.03181,-2.684275 0.10128,-0.243906 0.21548,-0.503339 0.25376,-0.576512 0.0383,-0.07321 0.16008,-0.432377 0.27065,-0.79824 0.11055,-0.365863 0.26333,-0.864763 0.33948,-1.108669 0.11927,-0.382004 0.14441,-1.46685 0.18132,-7.826726 l 0.0428,-7.38326 0.22785,-0.227862 c 0.19204,-0.192025 0.29831,-0.224765 0.67578,-0.208195 0.24636,0.01081 0.51318,0.05218 0.59296,0.092 0.0797,0.03982 0.37911,0.09706 0.6652,0.127323 0.28608,0.03028 0.56006,0.08616 0.60885,0.124177 0.0488,0.03807 0.28825,0.09697 0.53216,0.131011 0.24391,0.03398 0.59199,0.126027 0.77353,0.204525 0.61301,0.265061 0.60701,0.216111 0.59867,4.87447 -0.004,2.282536 0.0148,4.160034 0.0419,4.172232 0.14439,0.06494 0.22678,6.23e-4 0.22726,-0.177382 0,-0.109759 0.0564,-0.306633 0.12468,-0.437498 0.0682,-0.130866 0.15247,-0.370332 0.18708,-0.532166 0.0346,-0.161825 0.0936,-0.334135 0.13116,-0.38292 0.0375,-0.04878 0.0974,-0.228388 0.13304,-0.39912 0.0356,-0.170733 0.0949,-0.350345 0.13166,-0.39912 0.0368,-0.04877 0.11599,-0.298356 0.17606,-0.554606 0.0601,-0.256261 0.14165,-0.485962 0.18129,-0.510457 0.0396,-0.02453 0.099,-0.203766 0.13185,-0.39839 0.0329,-0.194614 0.0962,-0.376357 0.14075,-0.40389 0.0445,-0.02755 0.081,-0.111502 0.081,-0.186622 0,-0.07516 0.0551,-0.262335 0.12247,-0.416059 0.0674,-0.153715 0.21175,-0.538913 0.32086,-0.855992 0.17382,-0.505033 0.28241,-0.777317 0.61906,-1.552134 0.64247,-1.478747 1.09244,-2.18186 1.52815,-2.387895 0.43176,-0.204155 2.15919,-0.06396 2.50055,0.20291 0.0536,0.04196 0.20577,0.102068 0.33813,0.133669 0.38323,0.09152 1.27232,0.64874 1.53709,0.963413 0.59937,0.712305 0.60301,0.74195 0.70973,5.788661 0.0289,1.365883 0.0721,2.603158 0.0961,2.749504 0.0239,0.146345 0.0857,0.944595 0.13716,1.773871 0.0515,0.829287 0.13378,1.557683 0.18291,1.618667 0.21331,0.26476 0.2883,0.09772 0.46783,-1.042155 0.16985,-1.078547 0.38211,-2.137067 0.48019,-2.394729 0.0464,-0.121948 0.11172,-0.399801 0.14511,-0.617441 0.0334,-0.217639 0.093,-0.457114 0.13241,-0.532166 0.0394,-0.07506 0.11151,-0.296098 0.16019,-0.491228 0.22585,-0.905244 0.37644,-1.430254 0.44605,-1.555046 0.0417,-0.07477 0.10548,-0.274338 0.14169,-0.443465 0.0362,-0.169136 0.0966,-0.347433 0.13408,-0.396218 0.0375,-0.04877 0.0974,-0.228387 0.13305,-0.39912 0.0356,-0.170733 0.0955,-0.350335 0.13303,-0.39912 0.0375,-0.04878 0.0973,-0.228387 0.13286,-0.39912 0.0355,-0.170733 0.13993,-0.477861 0.23197,-0.682513 0.092,-0.204642 0.16734,-0.409625 0.16734,-0.455499 0,-0.04585 0.0596,-0.197749 0.13249,-0.337474 0.0729,-0.139725 0.13275,-0.321536 0.13304,-0.404017 0,-0.08246 0.036,-0.171921 0.0794,-0.198723 0.0434,-0.02677 0.10441,-0.150521 0.13564,-0.274903 0.10629,-0.423468 0.65709,-1.504167 0.91005,-1.785544 0.34571,-0.384557 0.89255,-0.590513 1.4231,-0.536003 0.53115,0.05462 1.26213,0.220414 1.46453,0.332266 0.0847,0.04683 0.19841,0.08509 0.25268,0.08509 0.0542,0 0.24439,0.06474 0.4225,0.143804 0.98298,0.436505 1.34303,0.648847 1.75327,1.034007 0.39297,0.368949 0.4731,0.504235 0.59766,1.009005 0.0791,0.320613 0.12632,0.611297 0.10489,0.645975 -0.0632,0.102214 -0.12875,1.571722 -0.18426,4.129669 -0.10255,4.725369 -0.0373,8.751509 0.14764,9.107442 0.0426,0.08217 0.0776,0.287326 0.0776,0.455936 0,0.421512 0.40134,1.930771 0.61424,2.309816 0.58705,1.045183 0.95887,1.414813 1.52964,1.520649 0.67396,0.124966 1.21061,-0.206472 1.72509,-1.065424 0.328,-0.547635 0.83698,-1.990186 0.9701,-2.749503 0.0342,-0.19513 0.0919,-0.39469 0.12813,-0.443465 0.0363,-0.04878 0.0943,-0.284766 0.12909,-0.524417 0.045,-0.310517 0.13813,-0.510719 0.32417,-0.696766 0.22809,-0.228066 0.30275,-0.253436 0.59109,-0.200845 0.46211,0.08431 0.55961,0.214348 0.6145,0.81957 0.0538,0.594309 -0.12021,2.330845 -0.24667,2.460581 -0.0452,0.04634 -0.0822,0.175201 -0.0822,0.286344 0,0.216801 -0.69171,2.34935 -0.786,2.423253 -0.0312,0.02444 -0.13544,0.199064 -0.23182,0.388158 -0.32335,0.634516 -1.18137,1.415262 -1.95342,1.777513 -0.19512,0.09151 -0.4346,0.209247 -0.53216,0.261546 -0.0976,0.05228 -0.64957,0.110586 -1.22669,0.129542 -0.91161,0.02989 -1.12693,0.0078 -1.64083,-0.165174 -0.8207,-0.276987 -0.98357,-0.384516 -1.93542,-1.277873 -0.40369,-0.378889 -0.79178,-0.851084 -1.0087,-1.227326 -0.19391,-0.336335 -0.35393,-0.637943 -0.35557,-0.670246 -0.002,-0.03232 -0.0801,-0.218378 -0.17438,-0.413509 -0.0942,-0.195121 -0.17272,-0.416634 -0.17438,-0.492251 -0.002,-0.07564 -0.0398,-0.175386 -0.0848,-0.221727 -0.0945,-0.0974 -0.34022,-1.152479 -0.46377,-1.99118 -0.0467,-0.317078 -0.12098,-0.69624 -0.16506,-0.842585 -0.1592,-0.528575 -0.30921,-4.092615 -0.27251,-6.474639 0.0667,-4.33062 0.0665,-4.340463 -0.0812,-4.367937 -0.15431,-0.02872 -0.19399,0.0514 -1.19724,2.416673 -0.0621,0.146345 -0.26077,0.685161 -0.44154,1.197369 -0.18077,0.512209 -0.36328,1.011109 -0.40557,1.108669 -0.0422,0.09756 -0.12519,0.356994 -0.18423,0.576513 -0.059,0.219517 -0.11886,0.439035 -0.13295,0.48781 -0.0141,0.04878 -0.0706,0.268303 -0.12566,0.487821 -0.055,0.219517 -0.13432,0.478942 -0.17617,0.576502 -0.0419,0.09757 -0.10325,0.355456 -0.13643,0.573104 -0.0332,0.217639 -0.0935,0.457116 -0.13399,0.532158 -0.08,0.148272 -0.20002,0.753494 -0.3963,1.999016 -0.0692,0.439035 -0.16705,1.017768 -0.21748,1.286061 -0.0862,0.458321 -0.22506,2.110178 -0.32049,3.811081 -0.0274,0.488278 -0.0881,0.801969 -0.17355,0.896345 -0.2247,0.248296 -0.98592,0.436806 -1.76385,0.436806 -0.63583,0 -0.79688,-0.03427 -1.25371,-0.266871 -0.28828,-0.146774 -0.62393,-0.356653 -0.74588,-0.466394 -0.26013,-0.234062 -0.79825,-0.905233 -0.79825,-0.995618 0,-0.03437 -0.0585,-0.188296 -0.12992,-0.342012 -0.15576,-0.335059 -0.28701,-0.84717 -0.4467,-1.742931 -0.0652,-0.365863 -0.142,-0.725067 -0.17061,-0.798241 -0.08,-0.204622 -0.31593,-2.546398 -0.41104,-4.079909 -0.0469,-0.756113 -0.12418,-1.654143 -0.17175,-1.995609 -0.0476,-0.341475 -0.11322,-1.608444 -0.14586,-2.815501 -0.0598,-2.210367 -0.11456,-2.565598 -0.40415,-2.621373 -0.23406,-0.04508 -1.07963,1.507243 -1.80207,3.308228 -0.2823,0.703766 -0.95785,2.824973 -1.15811,3.636434 -0.0361,0.146346 -0.0783,0.305999 -0.0937,0.354775 -0.11507,0.364325 -0.32753,1.374722 -0.42894,2.039955 -0.0669,0.439035 -0.14413,0.878071 -0.17157,0.975632 -0.0742,0.263591 -0.23842,3.137466 -0.28646,5.011195 -0.0458,1.785049 -0.10287,2.090921 -0.43557,2.332996 -0.41776,0.303955 -1.76378,0.413197 -2.87899,0.233654 -0.87953,-0.141594 -1.86485,-0.498091 -2.01384,-0.72863 -0.0386,-0.05968 -0.11012,-0.704009 -0.159,-1.43187 -0.0493,-0.733061 -0.1289,-1.336559 -0.17863,-1.352944 -0.0845,-0.02784 -0.39804,0.578789 -0.39804,0.770016 0,0.04848 -0.0399,0.08811 -0.0887,0.08811 -0.0488,0 -0.0887,0.05364 -0.0887,0.119125 0,0.213385 -0.85196,1.338642 -1.27759,1.687411 -0.83318,0.682707 -1.59438,0.942968 -2.758,0.942968 -2.1122,0 -4.04191,-1.305522 -4.70836,-3.185375 -0.0793,-0.223694 -0.17701,-0.486545 -0.21713,-0.584105 -0.0401,-0.09757 -0.0976,-0.327058 -0.12767,-0.509989 -0.0301,-0.182932 -0.10283,-0.331059 -0.1616,-0.32916 -0.0588,0.0019 -0.20663,0.208487 -0.32858,0.4591 -0.43306,0.889891 -1.40894,2.029042 -2.32902,2.718671 -0.60782,0.455577 -1.78601,1.076084 -2.04321,1.076084 -0.0774,0 -0.16226,0.03495 -0.18864,0.07759 -0.0513,0.08304 -1.16591,0.271642 -1.82508,0.308891 -0.56906,0.03213 -1.95011,-0.172885 -2.26286,-0.335965 -0.1457,-0.07594 -0.2927,-0.138372 -0.32666,-0.138674 -0.20613,-0.0019 -1.20767,-0.707688 -1.66976,-1.176818 -0.55669,-0.565169 -1.23972,-1.521126 -1.23972,-1.735094 0,-0.146598 -0.18333,-0.09531 -0.2805,0.07847 -0.55192,0.987052 -0.8002,1.342001 -1.26023,1.801705 -0.29908,0.298872 -0.69341,0.622328 -0.87627,0.718788 -0.18288,0.09648 -0.3325,0.206219 -0.3325,0.243906 0,0.03768 -0.0421,0.06854 -0.0936,0.06854 -0.0515,0 -0.26099,0.07594 -0.46564,0.168815 -0.35428,0.160744 -1.07307,0.290772 -1.74684,0.316017 -0.45586,0.01704 -1.51162,-0.182542 -1.81821,-0.343793 -0.14635,-0.07701 -0.29923,-0.140192 -0.33975,-0.140494 -0.0405,-2.63e-4 -0.27998,-0.137583 -0.53215,-0.305074 -0.93015,-0.617811 -2.09934,-1.987763 -2.59278,-3.037968 -0.11886,-0.25298 -0.21611,-0.48642 -0.21611,-0.518761 0,-0.03232 -0.0585,-0.184567 -0.12992,-0.338282 -0.28212,-0.606878 -0.45224,-1.531855 -0.62403,-3.393065 -0.13346,-1.445919 -0.13147,-1.620692 0.0423,-3.725136 0.10029,-1.214425 0.21773,-2.291181 0.26096,-2.3928 0.0432,-0.10162 0.10736,-0.460835 0.14252,-0.79825 0.0351,-0.337406 0.0889,-0.653394 0.11945,-0.70217 0.0546,-0.08713 0.18633,-0.703074 0.38337,-1.792164 0.15576,-0.861025 0.19405,-0.844358 -1.87497,-0.816211 -0.95391,0.01295 -1.80341,0.05734 -1.88775,0.09857 -0.0853,0.04167 -0.21758,0.300333 -0.29807,0.58284 -0.0796,0.279323 -0.18022,0.545776 -0.2236,0.592117 -0.0434,0.04634 -0.0789,0.140096 -0.0789,0.208333 0,0.06825 -0.0568,0.249844 -0.12643,0.403559 -0.0695,0.153715 -0.28543,0.678609 -0.47977,1.16642 -0.19435,0.487821 -0.4166,1.006679 -0.49388,1.153024 -0.0773,0.146336 -0.14079,0.315968 -0.14108,0.376942 0,0.06095 -0.0405,0.110869 -0.0893,0.110869 -0.0488,0 -0.0887,0.05491 -0.0887,0.121928 0,0.238376 -1.84574,3.732905 -2.50456,4.741852 -0.0848,0.129853 -0.18458,0.295971 -0.22174,0.369144 -0.0775,0.152644 -0.39527,0.644963 -1.0304,1.596489 -0.38299,0.573757 -0.57888,0.845117 -0.92918,1.287122 -0.0391,0.04936 -0.10838,0.153734 -0.15387,0.231911 -0.16377,0.281339 -1.52293,1.971086 -1.98852,2.472185 l -0.37085,0.399121 0.0487,3.680789 c 0.0437,3.306854 -0.004,5.119794 -0.16709,6.297244 -0.0304,0.21952 -0.0913,0.6785 -0.13556,1.01997 -0.1455,1.12327 -0.47254,2.55735 -0.70793,3.10429 -0.042,0.0976 -0.10174,0.27717 -0.13279,0.39912 -0.0563,0.22096 -0.64794,1.47222 -0.77591,1.64083 -0.63923,0.84219 -0.87027,1.12095 -1.17619,1.4191 -0.63688,0.62071 -1.37823,1.19737 -1.53937,1.19737 -0.0467,0 -0.0982,0.0299 -0.11446,0.0665 -0.0381,0.0856 -0.99023,0.55434 -1.12612,0.55434 -0.0568,0 -0.17251,0.0382 -0.25722,0.0847 -0.42614,0.23447 -2.79397,0.48306 -2.96568,0.31135 z m 1.83477,-2.34672 c 0.66839,-0.32357 1.29988,-1.02267 1.73538,-1.92117 0.58007,-1.19678 0.63033,-1.35821 0.85162,-2.73587 0.0705,-0.43905 0.16512,-0.91799 0.21022,-1.06433 0.10351,-0.33601 0.26203,-3.71216 0.26314,-5.604639 8.8e-4,-1.444977 -0.0656,-1.750839 -0.30826,-1.418963 -0.0576,0.07886 -0.64467,0.71355 -1.30449,1.410474 -1.82503,1.927658 -2.67549,2.929278 -3.42084,4.028888 -0.89148,1.31522 -1.57016,2.73616 -1.6714,3.49939 -0.032,0.24157 -0.0929,0.46064 -0.13527,0.48681 -0.0423,0.0262 -0.077,0.30714 -0.077,0.62437 0,1.35898 0.72278,2.47524 1.84416,2.8481 0.50169,0.16682 1.51041,0.0901 2.01274,-0.15306 z m -0.7589,-18.313063 c 1.05508,-0.669896 2.13586,-2.452977 2.50155,-4.127069 0.048,-0.219517 0.12302,-0.478942 0.16681,-0.576512 0.22382,-0.498685 0.61954,-4.035554 0.62021,-5.543353 0,-0.80997 -0.1132,-2.167568 -0.26709,-3.192968 -0.26617,-1.773561 -0.96416,-3.036071 -1.96939,-3.56224 -0.56774,-0.297178 -1.6438,-0.289886 -2.2121,0.01499 -1.05786,0.567506 -1.92465,1.778982 -2.44281,3.414201 -0.12367,0.39026 -0.28019,0.880572 -0.34783,1.089605 -0.0677,0.209024 -0.12297,0.459014 -0.12297,0.555532 0,0.09648 -0.0384,0.244801 -0.0853,0.329501 -0.0815,0.147143 -0.16344,0.661446 -0.37091,2.327009 -0.0575,0.461709 -0.0727,1.527317 -0.0391,2.749503 0.0611,2.226158 0.0662,2.306038 0.1473,2.306038 0.0316,0 0.0835,0.209539 0.11528,0.465643 0.1663,1.339733 1.1723,3.264692 1.96223,3.754673 0.14635,0.09074 0.44569,0.22644 0.6652,0.301492 0.34641,0.118423 0.46273,0.120507 0.88065,0.01577 0.26485,-0.0664 0.62406,-0.211203 0.79825,-0.32179 z m -22.793434,0.07195 c 0.646844,-0.322335 1.326352,-1.028847 1.862416,-1.936417 0.246985,-0.418153 0.449313,-0.788991 0.449615,-0.824088 0,-0.03505 0.05473,-0.167646 0.120968,-0.294579 0.108313,-0.207572 0.46236,-1.306408 0.682932,-2.119602 0.09428,-0.347599 0.216422,-1.047928 0.355768,-2.039954 0.123684,-0.880525 0.125697,-4.767904 0.0028,-5.499008 -0.187898,-1.11818 -0.286578,-1.555035 -0.413729,-1.831623 -0.07066,-0.153715 -0.128482,-0.320621 -0.128482,-0.370896 0,-0.200893 -0.59108,-1.193426 -0.905721,-1.520874 -0.18404,-0.191528 -0.524507,-0.45985 -0.756601,-0.596284 -0.378606,-0.222546 -0.504019,-0.247848 -1.22022,-0.246125 -0.655366,0.0019 -0.861748,0.03699 -1.153018,0.198109 -0.725433,0.401203 -1.371087,1.140553 -1.850698,2.1193 -0.332628,0.678794 -0.677069,1.63328 -0.677069,1.876231 0,0.08762 -0.03507,0.197214 -0.07792,0.243555 -0.07161,0.0774 -0.141866,0.445034 -0.376399,1.969421 -0.228288,1.483761 -0.218257,5.484774 0.01661,6.629435 0.05005,0.243905 0.130477,0.643025 0.178736,0.88694 0.04826,0.243906 0.123753,0.523288 0.167781,0.620848 0.04403,0.09757 0.10457,0.277172 0.134548,0.39913 0.02997,0.121947 0.202107,0.514925 0.382519,0.873262 0.761806,1.513143 1.984661,2.0714 3.20512,1.463219 z m 61.898184,0.01402 c 0.50097,-0.233225 1.29369,-0.9779 1.6619,-1.561188 0.36338,-0.575626 0.8369,-1.483615 0.83748,-1.605893 0,-0.06309 0.0564,-0.221739 0.12468,-0.352605 0.0682,-0.130855 0.15246,-0.370331 0.18708,-0.532156 0.0347,-0.161824 0.0935,-0.334144 0.13069,-0.382929 0.11923,-0.156081 0.40775,-1.802573 0.62169,-3.547744 0.19536,-1.593636 -0.0538,-5.898439 -0.35921,-6.203756 -0.0465,-0.04654 -0.0846,-0.158661 -0.0846,-0.249143 0,-0.158057 -0.19869,-0.659556 -0.51537,-1.300742 -0.2041,-0.413265 -0.9734,-1.175893 -1.39814,-1.386026 -0.26188,-0.129561 -0.53502,-0.172368 -1.10207,-0.172709 -0.8612,-5.35e-4 -1.32536,0.179885 -1.94185,0.754751 -0.36924,0.344309 -1.07373,1.365999 -1.07373,1.557187 0,0.06153 -0.0299,0.1252 -0.0665,0.141458 -0.0904,0.04021 -0.46564,0.972292 -0.46564,1.156889 0,0.08158 -0.0406,0.173342 -0.0901,0.20398 -0.0496,0.03067 -0.0672,0.09288 -0.0391,0.138274 0.028,0.04537 0.0188,0.132453 -0.0207,0.193427 -0.0913,0.141039 -0.26805,0.983119 -0.38632,1.840394 -0.0505,0.365864 -0.1283,0.844816 -0.17294,1.064324 -0.13141,0.646209 -0.0479,5.062424 0.11239,5.942482 0.22777,1.250623 0.48192,2.105017 0.84355,2.835771 0.19811,0.400317 0.21029,0.417549 0.63975,0.904766 0.70632,0.801326 1.61363,1.000448 2.55719,0.561188 z M 8.3627175,40.382581 c -0.147695,-0.147699 -0.174453,-0.252065 -0.130752,-0.50999 0.05737,-0.338593 0.36903,-1.437043 0.494652,-1.743392 0.136494,-0.332869 0.366224,-1.304597 0.62905,-2.660812 0.09193,-0.474405 0.207325,-9.187576 0.31024,-23.426682 l 0.06354,-8.7922329 -0.184972,-0.09899 c -0.101735,-0.05442 -0.237754,-0.07876 -0.302265,-0.05394 -0.260028,0.09981 -1.6198136,1.589773 -2.079874,2.279003 -0.4965834,0.743935 -1.4114266,2.530433 -1.6709604,3.263036 -0.3380776,0.95432 -0.5794049,1.7168409 -0.5794049,1.8307469 0,0.06766 -0.038874,0.192229 -0.086403,0.276938 -0.088691,0.158096 -0.2084133,0.801502 -0.3669834,1.972225 -0.09426,0.695928 -0.056778,3.608035 0.051375,3.991218 0.034415,0.121958 0.1025769,0.421298 0.1514583,0.665203 0.048882,0.243905 0.1203667,0.483382 0.1588573,0.532167 0.038494,0.04878 0.099524,0.188471 0.1356292,0.310419 0.1085429,0.366632 0.6345823,1.378266 0.9709541,1.867265 0.2383104,0.346451 0.3155135,0.549564 0.3155135,0.830114 0,0.482407 -0.1159936,0.58429 -0.6652017,0.58429 -0.2487857,0 -0.5002323,-0.0479 -0.5587703,-0.106429 -0.05854,-0.05851 -0.1064322,-0.07896 -0.1064322,-0.04546 0,0.03349 -0.2237138,-0.03797 -0.4971413,-0.158895 C 2.3282692,20.265606 0.84528179,18.547451 0.20467089,16.310594 0.03012629,15.701127 0.00126089,15.394622 2.2887473e-5,14.137603 -0.00104711,13.049895 0.03524589,12.548902 0.14138539,12.186339 c 0.078542,-0.268303 0.1697675,-0.657229 0.2027234,-0.864295 0.032956,-0.207067 0.091835,-0.39621 0.1308417,-0.420325 0.039006,-0.02414 0.098974,-0.193942 0.1332595,-0.377409 0.034286,-0.183467 0.093478,-0.373496 0.1315362,-0.422271 0.038059,-0.04878 0.117896,-0.2398469 0.1774147,-0.4245889 0.059519,-0.184742 0.22386361,-0.563904 0.36521011,-0.842585 0.1413456,-0.27869 0.2574987,-0.536168 0.258116,-0.57219 0.00224,-0.131216 1.093893,-1.905515 1.6240603,-2.639666 1.0088936,-1.397076 2.3330359,-2.74044 3.787374,-3.842362 0.3658609,-0.277201 0.7051145,-0.53608 0.7538956,-0.575285 0.1756122,-0.141117 1.2232146,-0.735134 1.5394436,-0.872902 1.3251975,-0.577339 2.9064235,-0.399344 4.5083895,0.507497 0.584875,0.331087 0.890293,0.619699 0.963205,0.910198 0.09696,0.386309 -0.02458,29.7849609 -0.125644,30.3922569 -0.268629,1.614199 -0.485591,2.566543 -0.679955,2.984648 -0.07146,0.153715 -0.129927,0.322461 -0.129927,0.375004 0,0.139988 -0.569094,1.331993 -0.929596,1.947097 -0.365253,0.623204 -1.465019,1.821381 -2.013336,2.193488 -0.210693,0.142976 -0.403034,0.280034 -0.427425,0.304558 -0.130578,0.131313 -0.7353285,0.37743 -1.2000435,0.488376 -0.675911,0.161378 -0.631081,0.164168 -0.848221,-0.05296 z"
       id="path56" />
  </g>
</svg>